<?xml version="1.0" encoding="UTF-8" standalone="no"?>
<svg width="50px" height="50px" viewBox="0 0 50 50" version="1.1" xmlns="http://www.w3.org/2000/svg" xmlns:xlink="http://www.w3.org/1999/xlink">
    <!-- Generator: Sketch 40.3 (33839) - http://www.bohemiancoding.com/sketch -->
    <title>Twitter_Logo_White_On_Blue</title>
    <desc>Created with Sketch.</desc>
    <defs></defs>
    <g id="Documentation-(Morgan)" stroke="none" stroke-width="1" fill="none" fill-rule="evenodd">
        <g id="Full-Docs-Page" transform="translate(-784.000000, -3206.000000)">
            <g id="Twitter_Logo_White_On_Blue" transform="translate(784.000000, 3206.000000)">
                <g id="Twitter_Logo_White-on-Blue">
                    <g id="Dark_Blue" fill="#000000">
                        <circle id="Oval-2" cx="25" cy="25" r="25"></circle>
                    </g>
                    <g id="Logo_FIXED" transform="translate(9.375000, 12.250000)" fill="#FFFFFF">
                        <path d="M9.8275,25.3924613 C21.62,25.3924613 28.07,15.6224613 28.07,7.14996129 C28.07,6.87246129 28.07,6.59621129 28.05125,6.32121129 C29.3060392,5.41359986 30.3891943,4.28981053 31.25,3.00246129 C30.0798488,3.52096351 28.8385366,3.8609971 27.5675,4.01121129 C28.90593,3.20993886 29.9076544,1.94967627 30.38625,0.464961289 C29.1276969,1.21178043 27.7508076,1.73810131 26.315,2.02121129 C24.3276035,-0.0920458622 21.1696492,-0.60927298 18.6119366,0.759561199 C16.054224,2.12839538 14.7328437,5.04286845 15.38875,7.86871129 C10.2336197,7.61027321 5.43059473,5.17536538 2.175,1.16996129 C0.473278445,4.0995172 1.34248485,7.84728564 4.16,9.72871129 C3.1396765,9.69847072 2.14159921,9.42322776 1.25,8.92621129 L1.25,9.00746129 C1.25083517,12.0594525 3.40218936,14.6881302 6.39375,15.2924613 C5.44983699,15.5498864 4.45947573,15.5875167 3.49875,15.4024613 C4.33868491,18.0142398 6.7457182,19.8034411 9.48875,19.8549613 C7.2184188,21.6392512 4.41382439,22.607871 1.52625,22.6049613 C1.01612946,22.603982 0.506505082,22.5730956 0,22.5124613 C2.93204494,24.394057 6.34364175,25.3921074 9.8275,25.3874613" id="Shape"></path>
                    </g>
                </g>
            </g>
        </g>
    </g>
</svg>