<?xml version="1.0" encoding="UTF-8" standalone="no"?>
<svg width="45px" height="21px" viewBox="0 0 45 21" version="1.1" xmlns="http://www.w3.org/2000/svg" xmlns:xlink="http://www.w3.org/1999/xlink">
    <!-- Generator: Sketch 39.1 (31720) - http://www.bohemiancoding.com/sketch -->
    <title>Shape</title>
    <desc>Created with Sketch.</desc>
    <defs></defs>
    <g id="Page-1" stroke="none" stroke-width="1" fill="none" fill-rule="evenodd">
        <g id="1---Home-Page" transform="translate(-311.000000, -1113.000000)" fill="#FF5003">
            <g id="Learn-More" transform="translate(0.000000, 920.000000)">
                <g id="2" transform="translate(207.000000, 193.000000)">
                    <path d="M104,0 L107.75,0 L107.75,20.25 L104,20.25 L104,0 L104,0 Z M128.375,0 L132.125,0 L132.125,20.25 L128.375,20.25 L128.375,0 L128.375,0 Z M118.025,0.0375 C121.8125,0.0375 125,2.475 125,10.05 C125,17.8125 121.8125,20.25 118.025,20.25 C114.275,20.25 111.0875,17.8125 111.0875,10.05 C111.0875,2.475 114.275,0.0375 118.025,0.0375 L118.025,0.0375 Z M118.025,17.025 C121.175,17.025 121.175,12.2625 121.175,10.0875 C121.175,8.0625 121.175,3.3 118.025,3.3 C114.9125,3.3 114.95,8.0625 114.95,10.0875 C114.95,12.2625 114.95,17.025 118.025,17.025 L118.025,17.025 Z M142.025,0.0375 C145.8125,0.0375 149,2.475 149,10.05 C149,17.8125 145.8125,20.25 142.025,20.25 C138.275,20.25 135.0875,17.8125 135.0875,10.05 C135.0875,2.475 138.275,0.0375 142.025,0.0375 L142.025,0.0375 Z M142.025,17.025 C145.175,17.025 145.175,12.2625 145.175,10.0875 C145.175,8.0625 145.175,3.3 142.025,3.3 C138.9125,3.3 138.95,8.0625 138.95,10.0875 C138.95,12.2625 138.95,17.025 142.025,17.025 L142.025,17.025 Z" id="Shape"></path>
                </g>
            </g>
        </g>
    </g>
</svg>