<?xml version="1.0" encoding="UTF-8" standalone="no"?>
<svg width="45px" height="45px" viewBox="0 0 45 45" version="1.1" xmlns="http://www.w3.org/2000/svg" xmlns:xlink="http://www.w3.org/1999/xlink">
    <!-- Generator: Sketch 39.1 (31720) - http://www.bohemiancoding.com/sketch -->
    <title>flow_64</title>
    <desc>Created with Sketch.</desc>
    <defs></defs>
    <g id="Page-1" stroke="none" stroke-width="1" fill="none" fill-rule="evenodd">
        <g id="1---Home-Page" transform="translate(-942.000000, -1101.000000)" fill="#FF5003">
            <g id="Learn-More" transform="translate(0.000000, 920.000000)">
                <g id="3" transform="translate(838.000000, 181.000000)">
                    <path d="M140.346154,27.6923077 C135.858269,27.6923077 132.170865,31.1071154 131.736442,35.4807692 L121.263558,35.4807692 C121.091346,33.7404808 120.4025,32.1525 119.353654,30.87 L134.87,15.3527885 C136.361923,16.5738462 138.268365,17.3076923 140.346154,17.3076923 C145.125673,17.3076923 149,13.4333654 149,8.65384615 C149,3.87432692 145.125673,0 140.346154,0 C135.858269,0 132.170865,3.41480769 131.736442,7.78846154 L121.263558,7.78846154 C120.829135,3.41480769 117.140865,0 112.653846,0 C107.874327,0 104,3.87432692 104,8.65384615 C104,13.4333654 107.874327,17.3076923 112.653846,17.3076923 C117.140865,17.3076923 120.829135,13.8928846 121.263558,9.51923077 L131.736442,9.51923077 C131.908654,11.2595192 132.5975,12.8475 133.646346,14.13 L118.13,29.6472115 C116.638077,28.4261538 114.731635,27.6923077 112.653846,27.6923077 C107.874327,27.6923077 104,31.5666346 104,36.3461538 C104,41.1256731 107.874327,45 112.653846,45 C117.140865,45 120.829135,41.5851923 121.263558,37.2115385 L131.736442,37.2115385 C132.170865,41.5851923 135.859135,45 140.346154,45 C145.125673,45 149,41.1256731 149,36.3461538 C149,31.5666346 145.125673,27.6923077 140.346154,27.6923077 L140.346154,27.6923077 Z M112.653846,15.5769231 C108.830577,15.5769231 105.730769,12.4771154 105.730769,8.65384615 C105.730769,4.83057692 108.830577,1.73076923 112.653846,1.73076923 C116.477115,1.73076923 119.576923,4.83057692 119.576923,8.65384615 C119.576923,12.4771154 116.477115,15.5769231 112.653846,15.5769231 L112.653846,15.5769231 Z M133.423077,8.65384615 C133.423077,4.83057692 136.522885,1.73076923 140.346154,1.73076923 C144.169423,1.73076923 147.269231,4.83057692 147.269231,8.65384615 C147.269231,12.4771154 144.169423,15.5769231 140.346154,15.5769231 C136.522885,15.5769231 133.423077,12.4771154 133.423077,8.65384615 L133.423077,8.65384615 Z M112.653846,43.2692308 C108.830577,43.2692308 105.730769,40.1694231 105.730769,36.3461538 C105.730769,32.5228846 108.830577,29.4230769 112.653846,29.4230769 C116.477115,29.4230769 119.576923,32.5228846 119.576923,36.3461538 C119.576923,40.1694231 116.477115,43.2692308 112.653846,43.2692308 L112.653846,43.2692308 Z" id="flow_64"></path>
                </g>
            </g>
        </g>
    </g>
</svg>