<svg id="Layer_1" data-name="Layer 1" xmlns="http://www.w3.org/2000/svg" xmlns:xlink="http://www.w3.org/1999/xlink" viewBox="0 0 712.77 112.97"><defs><style>.cls-1{fill:none;}.cls-2{fill:#ff3621;}.cls-3{clip-path:url(#clip-path);}</style><clipPath id="clip-path" transform="translate(0 0)"><rect class="cls-1" width="725.33" height="112.97"/></clipPath></defs><title>DAT_Logo_product</title><polygon class="cls-2" points="0 29.44 0 32.84 52.13 62.25 98.69 35.96 98.7 46.58 52.13 73.04 2.62 44.91 0 46.37 0 66.72 52.13 96.06 98.69 69.86 98.7 80.4 52.13 106.86 2.62 78.73 0 80.19 0 83.64 52.13 112.97 104.26 83.64 104.26 63.27 101.63 61.82 52.13 89.95 5.56 63.49 5.56 53 52.13 79.17 104.26 49.83 104.26 29.76 101.63 28.3 52.13 56.44 7.95 31.33 52.13 6.38 88.52 26.94 91.7 25.15 91.7 22.35 52.13 0 0 29.44"/><g class="cls-3"><path d="M202.16,96.24V6.4H188.32V40a1.19,1.19,0,0,1-2.09.77c-4.68-5.49-12-8.64-20-8.64-17.11,0-30.5,14.43-30.5,32.84a34.07,34.07,0,0,0,8.8,23.43,29.33,29.33,0,0,0,21.7,9.41,26,26,0,0,0,20-9,1.19,1.19,0,0,1,2.1.77v6.69Zm-32.84-11c-11,0-19.64-8.92-19.64-20.3s8.63-20.3,19.64-20.3S189,53.58,189,65s-8.63,20.3-19.65,20.3" transform="translate(0 0)"/><path d="M276,96.24V33.68H262.33V40a1.2,1.2,0,0,1-.79,1.12,1.17,1.17,0,0,1-1.31-.36c-4.65-5.54-11.75-8.6-20-8.6-17.1,0-30.5,14.43-30.5,32.84s13.4,32.84,30.5,32.84a25.75,25.75,0,0,0,20-9.11,1.18,1.18,0,0,1,1.32-.36,1.2,1.2,0,0,1,.79,1.12v6.79Zm-32.71-11c-11,0-19.65-8.92-19.65-20.3s8.63-20.3,19.65-20.3S263,53.58,263,65s-8.63,20.3-19.65,20.3" transform="translate(0 0)"/><path d="M393.28,96.24V33.68H379.56V40a1.19,1.19,0,0,1-2.1.76c-4.64-5.54-11.75-8.6-20-8.6C340.35,32.12,327,46.55,327,65s13.4,32.84,30.5,32.84a25.75,25.75,0,0,0,20-9.11,1.19,1.19,0,0,1,2.1.76v6.79Zm-32.71-11c-11,0-19.65-8.92-19.65-20.3s8.63-20.3,19.65-20.3,19.64,8.92,19.64,20.3-8.63,20.3-19.64,20.3" transform="translate(0 0)"/><path d="M418.41,88.81a1.14,1.14,0,0,1,.41-.07,1.21,1.21,0,0,1,.91.41c4.68,5.5,12,8.64,20,8.64,17.1,0,30.5-14.42,30.5-32.83a34.12,34.12,0,0,0-8.8-23.43,29.33,29.33,0,0,0-21.7-9.41,26,26,0,0,0-20,9,1.19,1.19,0,0,1-2.1-.76l0-34H403.82l0,89.84h13.84V89.93a1.2,1.2,0,0,1,.78-1.12M417,65c0-11.38,8.63-20.3,19.64-20.3s19.65,8.92,19.65,20.3-8.63,20.29-19.65,20.29S417,76.34,417,65" transform="translate(0 0)"/><path d="M510.07,46.48a16.07,16.07,0,0,1,3.34.31V32.61a11.84,11.84,0,0,0-2.3-.23A20.05,20.05,0,0,0,493.8,42a1.19,1.19,0,0,1-2.21-.61V33.68H477.88V96.24h13.84V68.73c0-13.73,7-22.25,18.35-22.25" transform="translate(0 0)"/><rect x="522.08" y="33.68" width="13.97" height="62.56"/><path d="M528.9,6.46a8.48,8.48,0,1,0,8.48,8.47,8.48,8.48,0,0,0-8.48-8.47" transform="translate(0 0)"/><path d="M577.1,32.12C557.93,32.12,544,45.93,544,65c0,9.25,3.26,17.62,9.19,23.56S567.6,97.8,577,97.8c7.76,0,13.81-1.54,25.21-9.91l-7.86-8.29c-5.6,3.72-10.81,5.53-15.92,5.53-11.57,0-20.3-8.67-20.3-20.17s8.73-20.17,20.3-20.17a25.63,25.63,0,0,1,15.65,5.53L602.83,42c-10.2-8.86-19.56-9.89-25.73-9.89" transform="translate(0 0)"/><path d="M627.29,68.6" transform="translate(0 0)"/><path d="M626.49,68.65a1.2,1.2,0,0,1,.8-.31h.08a1.24,1.24,0,0,1,.85.44l22.13,27.44,17,0L638.74,61.6a1.19,1.19,0,0,1,.08-1.6l26.32-26.32H648.26L625.59,56.46a1.18,1.18,0,0,1-2-.84l0-49.22H609.73V96.24h13.84V71.86A1.15,1.15,0,0,1,624,71Z" transform="translate(0 0)"/><path d="M689.94,97.8c11.35,0,22.83-6.87,22.83-20,0-8.56-5.35-14.46-16.37-18l-7.54-2.47c-5.06-1.69-7.53-4.11-7.53-7.41,0-3.77,3.38-6.4,8.22-6.4,4.6,0,8.7,3,11.29,8.24l11.11-6a24.44,24.44,0,0,0-22.4-13.63c-12.4,0-21.41,8-21.41,18.94,0,8.67,5.19,14.53,15.86,17.92l7.67,2.47c5.43,1.72,7.65,3.86,7.65,7.41,0,5.29-4.91,7.17-9.12,7.17-5.62,0-10.58-3.64-13-9.52L666,82.36c3.71,9.53,12.87,15.44,24,15.44" transform="translate(0 0)"/><path d="M696.58,59.21" transform="translate(0 0)"/><path d="M314.38,97.16a73.68,73.68,0,0,0,10.51-.73v-12a64.56,64.56,0,0,1-6.94.45c-5.62,0-9.91-1-9.91-13.06V46.14A1.18,1.18,0,0,1,309.22,45h13.47V33.67H309.22A1.19,1.19,0,0,1,308,32.49V14.35H294.28V32.49a1.19,1.19,0,0,1-1.19,1.19h-9.64V45h9.63a1.18,1.18,0,0,1,1.19,1.18V75.28c0,21.88,14.6,21.88,20.1,21.88" transform="translate(0 0)"/></g></svg>