<svg xmlns="http://www.w3.org/2000/svg" viewBox="0 0 100 99.48"><defs><style>.cls-1{fill:#e46e2e;}.cls-2{fill:#767474;}.cls-3{fill:#313940;}.cls-4{font-size:12px;font-family:MyriadPro-Regular, Myriad Pro;}</style></defs><title>jupyter-logo</title><g id="Layer_2" data-name="Layer 2"><g id="Layer_1-2" data-name="Layer 1"><g id="Page-1"><g id="Artboard"><g id="Group-Copy-4-_-Group-_-Group-Copy" data-name="Group-Copy-4-+-Group-+-Group-Copy"><g id="Group-Copy-4"><path id="Fill-9" class="cls-1" d="M50.15,78.57c-16.3,0-30.5-5.86-37.89-14.52a40.27,40.27,0,0,0,75.78,0c-7.39,8.66-21.59,14.52-37.89,14.52"/><path id="Fill-10" class="cls-1" d="M50.15,22.22c16.3,0,30.5,5.86,37.89,14.52a40.27,40.27,0,0,0-75.78,0c7.39-8.66,21.59-14.52,37.89-14.52"/><path id="Fill-11" class="cls-2" d="M19.61,99.47a6.33,6.33,0,1,1,6.06-6.6A6.33,6.33,0,0,1,19.61,99.47Z"/><path id="Fill-12" class="cls-2" d="M14.75,17a4,4,0,1,1,3.79-4.13A4,4,0,0,1,14.75,17Z"/><path id="Fill-8" class="cls-2" d="M77.61,12.29a6.15,6.15,0,1,1,5.88-6.41A6.15,6.15,0,0,1,77.61,12.29Z"/><g id="Group-Copy"><path id="Fill-1" class="cls-3" d="M4.09,55.74c0,3.65-.29,4.84-1,5.72a4.53,4.53,0,0,1-3,1.16L.29,64.8A7.11,7.11,0,0,0,5,63.07c1.36-1.38,1.84-3.3,1.84-6.26V43H4.09V55.74"/><path id="Fill-2" class="cls-3" d="M24.91,54.07c0,1.57,0,3,.13,4.15H22.56l-.16-2.48h-.06a5.78,5.78,0,0,1-5.07,2.83c-2.41,0-5.29-1.32-5.29-6.67V43h2.79v8.43c0,2.89.89,4.84,3.42,4.84a3.9,3.9,0,0,0,3.93-3.93V43h2.79V54.07"/><path id="Fill-3" class="cls-3" d="M30.17,48c0-1.95-.06-3.52-.13-5h2.5l.13,2.61h.06a6,6,0,0,1,5.45-3c3.71,0,6.5,3.11,6.5,7.74,0,5.47-3.36,8.18-7,8.18A5.39,5.39,0,0,1,33,56.18h-.06v8.27H30.17V48ZM32.93,52a6.17,6.17,0,0,0,.13,1.13,4.3,4.3,0,0,0,4.18,3.24c2.95,0,4.66-2.39,4.66-5.88,0-3.05-1.62-5.66-4.56-5.66a4.8,4.8,0,0,0-4.4,4.56V52Z"/><path id="Fill-4" class="cls-3" d="M49.63,43,53,52c.35,1,.73,2.2,1,3.11H54c.29-.91.6-2.08,1-3.18l3-8.93H61L56.82,53.85c-2,5.22-3.36,7.89-5.26,9.53a7.58,7.58,0,0,1-3.42,1.79l-.7-2.33a7.4,7.4,0,0,0,2.44-1.35,8.4,8.4,0,0,0,2.35-3.08,2,2,0,0,0,.22-.66,2.39,2.39,0,0,0-.19-.72L46.59,43h3"/><path id="Fill-5" class="cls-3" d="M68.34,38.63V43h4v2.11h-4v8.21c0,1.89.54,3,2.09,3A6.25,6.25,0,0,0,72,56.09l.13,2.08a6.87,6.87,0,0,1-2.47.38,3.88,3.88,0,0,1-3-1.16c-.79-.82-1.08-2.17-1.08-4v-8.3H63.24V43h2.38V39.35l2.73-.72"/><path id="Fill-6" class="cls-3" d="M77.47,51.12c.06,3.74,2.47,5.28,5.26,5.28A10.15,10.15,0,0,0,87,55.61l.48,2a12.5,12.5,0,0,1-5.1.94c-4.72,0-7.54-3.08-7.54-7.67s2.73-8.21,7.19-8.21c5,0,6.34,4.37,6.34,7.17a10.35,10.35,0,0,1-.09,1.29Zm8.18-2c0-1.76-.73-4.5-3.87-4.5-2.82,0-4.06,2.58-4.28,4.5Z"/><text class="cls-4" transform="translate(95.29 59.95) rotate(-119.48)">D</text></g></g></g></g></g></g></g></svg>
