<?xml version="1.0" encoding="UTF-8" standalone="no"?>
<svg width="36px" height="36px" viewBox="0 0 36 36" version="1.1" xmlns="http://www.w3.org/2000/svg" xmlns:xlink="http://www.w3.org/1999/xlink">
    <!-- Generator: Sketch 39.1 (31720) - http://www.bohemiancoding.com/sketch -->
    <title>Play Button</title>
    <desc>Created with Sketch.</desc>
    <defs></defs>
    <g id="Page-1" stroke="none" stroke-width="1" fill="none" fill-rule="evenodd">
        <g id="1---Home-Page" transform="translate(-510.000000, -270.000000)" fill="#FFFFFF">
            <g id="Group-2" transform="translate(511.000000, 271.000000)">
                <g id="Play-Button">
                    <path d="M17,0 C7.61175,0 0,7.61175 0,17 C0,26.38825 7.61175,34 17,34 C26.38825,34 34,26.38825 34,17 C34,7.61175 26.38825,0 17,0 L17,0 Z M17,32.7857143 C8.296,32.7857143 1.21428571,25.704 1.21428571,17 C1.21428571,8.296 8.296,1.21428571 17,1.21428571 C25.704,1.21428571 32.7857143,8.296 32.7857143,17 C32.7857143,25.704 25.704,32.7857143 17,32.7857143 L17,32.7857143 Z" id="Shape" stroke="#FFFFFF"></path>
                    <polygon id="Shape" points="11 25 26 17.5 11 10"></polygon>
                </g>
            </g>
        </g>
    </g>
</svg>