<?xml version="1.0" encoding="utf-8"?>
<!-- Generator: Adobe Illustrator 20.0.0, SVG Export Plug-In . SVG Version: 6.00 Build 0)  -->
<svg version="1.1" id="Layer_1" xmlns="http://www.w3.org/2000/svg" xmlns:xlink="http://www.w3.org/1999/xlink" x="0px" y="0px"
	 viewBox="0 0 60 40" style="enable-background:new 0 0 60 40;" xml:space="preserve">
<style type="text/css">
	.st0{fill:#F05323;}
</style>
<path class="st0" d="M6,15.4V14H4v-2H0v16h4v-2h2v-1.4l4,1.1V32c0,2.2,1.8,4,4,4h8c2.2,0,4-1.8,4-4v-1.7L60,40V0L6,15.4z M24,32
	c0,1.1-0.9,2-2,2h-8c-1.1,0-2-0.9-2-2v-5.7l12,3.4V32z M58,37.3L6,22.5v-5L58,2.7V37.3z"/>
</svg>
