<?xml version="1.0" encoding="UTF-8" standalone="no"?>
<svg width="50px" height="50px" viewBox="0 0 50 50" version="1.1" xmlns="http://www.w3.org/2000/svg" xmlns:xlink="http://www.w3.org/1999/xlink">
    <!-- Generator: Sketch 40.3 (33839) - http://www.bohemiancoding.com/sketch -->
    <title>Group 6</title>
    <desc>Created with Sketch.</desc>
    <defs>
        <polygon id="path-1" points="0.00186317238 22.3251525 31.7189571 22.3251525 31.7189571 0.0179175077 0.00186317238 0.0179175077"></polygon>
    </defs>
    <g id="Documentation-(Morgan)" stroke="none" stroke-width="1" fill="none" fill-rule="evenodd">
        <g id="Full-Docs-Page" transform="translate(-584.000000, -3206.000000)">
            <g id="Group-6" transform="translate(584.000000, 3206.000000)">
                <g id="Twitter_Logo_White_On_Blue-Copy-2" fill="#000000">
                    <g id="Twitter_Logo_White-on-Blue">
                        <g id="Dark_Blue">
                            <circle id="Oval-2" cx="24.9890048" cy="24.9890048" r="24.9890048"></circle>
                        </g>
                    </g>
                </g>
                <g id="YouTube_light_color_icon" transform="translate(8.996042, 13.993843)">
                    <mask id="mask-2" fill="white">
                        <use xlink:href="#path-1"></use>
                    </mask>
                    <g id="Clip-2"></g>
                    <path d="M12.5848599,15.2867393 L12.5834004,6.37456481 L21.1539934,10.8461785 L12.5848599,15.2867393 L12.5848599,15.2867393 Z M31.4022178,4.83064702 C31.4022178,4.83064702 31.0923101,2.64486635 30.1412227,1.68232044 C28.935067,0.418996415 27.583087,0.412723734 26.9630854,0.338786844 C22.5244809,0.0179175077 15.8663412,0.0179175077 15.8663412,0.0179175077 L15.8525537,0.0179175077 C15.8525537,0.0179175077 9.19456936,0.0179175077 4.7558096,0.338786844 C4.13577688,0.412723734 2.78429375,0.418996415 1.57770332,1.68232044 C0.626678029,2.64486635 0.317205097,4.83064702 0.317205097,4.83064702 C0.317205097,4.83064702 0,7.3974775 0,9.96427692 L0,12.3706572 C0,14.9374256 0.317205097,17.504225 0.317205097,17.504225 C0.317205097,17.504225 0.626678029,19.6900367 1.57770332,20.6525826 C2.78429375,21.9159377 4.36923238,21.8759727 5.07515734,22.0083821 C7.61270496,22.2517124 15.8594785,22.3270156 15.8594785,22.3270156 C15.8594785,22.3270156 22.5244809,22.3169856 26.9630854,21.9961473 C27.583087,21.9221793 28.935067,21.9159377 30.1412227,20.6525826 C31.0923101,19.6900367 31.4022178,17.504225 31.4022178,17.504225 C31.4022178,17.504225 31.7189571,14.9374256 31.7189571,12.3706572 L31.7189571,9.96427692 C31.7189571,7.3974775 31.4022178,4.83064702 31.4022178,4.83064702 L31.4022178,4.83064702 Z" id="Fill-3" fill="#FFFFFF" mask="url(#mask-2)"></path>
                </g>
            </g>
        </g>
    </g>
</svg>