<?xml version="1.0" encoding="UTF-8" standalone="no"?>
<svg width="200px" height="200px" viewBox="0 0 200 200" version="1.1" xmlns="http://www.w3.org/2000/svg" xmlns:xlink="http://www.w3.org/1999/xlink">
    <!-- Generator: Sketch 41 (35326) - http://www.bohemiancoding.com/sketch -->
    <title>Group 17</title>
    <desc>Created with Sketch.</desc>
    <defs>
        <polygon id="path-1" points="0 194.695004 199.623824 194.695004 199.623824 0 0 0"></polygon>
    </defs>
    <g id="Documentation-(Morgan)" stroke="none" stroke-width="1" fill="none" fill-rule="evenodd">
        <g id="Group-17">
            <circle id="Oval-2" fill="#FFFFFF" cx="100" cy="100" r="100"></circle>
            <mask id="mask-2" fill="white">
                <use xlink:href="#path-1"></use>
            </mask>
            <g id="Clip-2"></g>
            <path d="M99.8127384,0 C44.6949106,0 0,44.6849934 0,99.8127384 C0,143.910968 28.5993875,181.325042 68.2580423,194.523107 C73.2463652,195.447054 75.0777309,192.357864 75.0777309,189.721557 C75.0777309,187.343095 74.9868238,179.478801 74.9421966,171.138484 C47.1741963,177.176371 41.3148177,159.361876 41.3148177,159.361876 C36.774419,147.826586 30.2324104,144.75723 30.2324104,144.75723 C21.176406,138.562322 30.9150404,138.689592 30.9150404,138.689592 C40.9379662,139.393709 46.2155391,148.976975 46.2155391,148.976975 C55.1178278,164.234499 69.5654523,159.823023 75.2611981,157.272665 C76.1586995,150.823216 78.7437681,146.418352 81.5982524,143.925843 C59.4284793,141.403583 36.1231933,132.843436 36.1231933,94.597974 C36.1231933,83.7023396 40.0222834,74.7967452 46.4072706,67.8068123 C45.3709291,65.2928165 41.9544734,55.1409678 47.3758449,41.3925019 C47.3758449,41.3925019 55.7574835,38.7115676 74.8298024,51.6253406 C82.7916153,49.4138178 91.3302754,48.3047506 99.8127384,48.265082 C108.295201,48.3047506 116.840473,49.4138178 124.817162,51.6253406 C143.867993,38.7115676 152.238062,41.3925019 152.238062,41.3925019 C157.671003,55.1409678 154.254548,65.2928165 153.218206,67.8068123 C159.618069,74.7967452 163.489061,83.7023396 163.489061,94.597974 C163.489061,132.935996 140.1408,141.375485 117.913177,143.846506 C121.493266,146.94396 124.68328,153.01821 124.68328,162.330408 C124.68328,175.685494 124.569233,186.434024 124.569233,189.721557 C124.569233,192.379351 126.365889,195.491681 131.423632,194.511537 C171.062452,181.298597 199.625477,143.897745 199.625477,99.8127384 C199.625477,44.6849934 154.937178,0 99.8127384,0" id="Fill-1" fill="#181616" mask="url(#mask-2)"></path>
            <path d="M38.6732642,143.691339 C38.4534342,144.188849 37.6732856,144.337606 36.962557,143.995465 C36.2369527,143.669852 35.8320027,142.993833 36.0667085,142.496323 C36.2815799,141.987243 37.0617285,141.845098 37.7856799,142.185586 C38.5096313,142.511199 38.9228456,143.193829 38.6732642,143.691339" id="Fill-4" fill="#181616" mask="url(#mask-2)"></path>
            <path d="M42.6247129,147.76762 C42.14869,148.208933 41.2164786,148.003978 40.58674,147.306473 C39.9322086,146.61062 39.81155,145.678408 40.2941843,145.232137 C40.7850829,144.790824 41.6875429,144.997431 42.3404215,145.693284 C42.9949529,146.397401 43.1222229,147.319695 42.6247129,147.76762" id="Fill-6" fill="#181616" mask="url(#mask-2)"></path>
            <path d="M46.6881823,154.413907 C46.0766252,154.840344 45.0749937,154.442005 44.4568252,153.554421 C43.845268,152.665184 43.845268,151.600744 44.4717009,151.174307 C45.0898695,150.74787 46.0766252,151.132985 46.703058,152.012305 C47.3129623,152.914765 47.3129623,153.979205 46.6881823,154.413907" id="Fill-8" fill="#181616" mask="url(#mask-2)"></path>
            <path d="M51.42455,159.294294 C50.8774543,159.897587 49.71219,159.735607 48.8593157,158.910831 C47.9866071,158.107542 47.7436371,156.965418 48.2923857,156.362125 C48.8460929,155.757179 50.0179686,155.927424 50.8774543,156.743935 C51.7435515,157.547224 52.0080086,158.697612 51.42455,159.294294" id="Fill-10" fill="#181616" mask="url(#mask-2)"></path>
            <path d="M59.1751512,163.180297 C58.9338341,163.962098 57.8115441,164.31581 56.6809898,163.983585 C55.5520883,163.641444 54.8132612,162.727414 55.0413555,161.937348 C55.2760612,161.148935 56.4033098,160.780348 57.5421284,161.135712 C58.6693769,161.476201 59.409857,162.385272 59.1751512,163.180297" id="Fill-12" fill="#181616" mask="url(#mask-2)"></path>
            <path d="M67.2908172,163.456755 C67.3189158,164.279878 66.3602586,164.962508 65.1735072,164.977384 C63.9801443,165.00383 63.0132229,164.337728 63,163.527828 C63,162.696441 63.9388229,162.022075 65.1305329,162.000588 C66.3172843,161.977448 67.2908172,162.640244 67.2908172,163.456755" id="Fill-14" fill="#181616" mask="url(#mask-2)"></path>
            <path d="M75.2556444,162.141255 C75.3977902,162.94289 74.5730144,163.767666 73.3945273,163.987496 C72.2358744,164.200715 71.1631701,163.703205 71.0160658,162.90818 C70.8722672,162.085057 71.7102658,161.260282 72.8689187,161.047063 C74.0490587,160.842109 75.1052344,161.324743 75.2556444,162.141255" id="Fill-16" fill="#181616" mask="url(#mask-2)"></path>
        </g>
    </g>
</svg>